<?xml version="1.0" standalone="no"?>
<!DOCTYPE svg PUBLIC "-//W3C//DTD SVG 20010904//EN"
 "http://www.w3.org/TR/2001/REC-SVG-20010904/DTD/svg10.dtd">
<svg version="1.0" xmlns="http://www.w3.org/2000/svg"
 width="20.000000pt" height="19.000000pt" viewBox="0 0 20.000000 19.000000"
 preserveAspectRatio="xMidYMid meet">

<g transform="translate(0.000000,19.000000) scale(0.100000,-0.100000)"
fill="#000000" stroke="none">
<path d="M64 180 c-56 -23 -72 -107 -29 -154 33 -36 95 -37 130 -1 70 69 -12
193 -101 155z m63 -67 c-2 -13 2 -28 9 -34 8 -6 14 -19 13 -28 0 -11 -3 -10
-11 7 -15 30 -64 31 -73 1 -4 -11 -9 -18 -12 -16 -2 3 1 16 8 29 7 12 12 33
10 45 -3 27 28 47 47 30 8 -6 12 -21 9 -34z"/>
<path d="M93 143 c-22 -8 -15 -43 7 -43 13 0 20 7 20 19 0 22 -9 30 -27 24z"/>
</g>
</svg>
