<svg width="30" height="20" viewBox="0 0 19 14" fill="none" xmlns="http://www.w3.org/2000/svg">
<path fill-rule="evenodd" clip-rule="evenodd" d="M18 2C18.5523 2 19 1.55228 19 1C19 0.447715 18.5523 0 18 0H1C0.447715 0 0 0.447715 0 1C0 1.55228 0.447715 2 1 2H18ZM18 6C18.5523 6 19 6.44772 19 7C19 7.55228 18.5523 8 18 8H1C0.447715 8 0 7.55228 0 7C0 6.44772 0.447715 6 1 6H18ZM18 12C18.5523 12 19 12.4477 19 13C19 13.5523 18.5523 14 18 14H1C0.447715 14 0 13.5523 0 13C0 12.4477 0.447715 12 1 12H18Z" fill="#FEFEFE"/>
</svg>
