<svg width="24" height="24" viewBox="0 0 24 24" fill="none" xmlns="http://www.w3.org/2000/svg">
<path d="M18.4667 22.5C18.3089 22.5006 18.1548 22.4514 18.0266 22.3594L11.998 17.9888L5.96937 22.3594C5.84058 22.4528 5.68541 22.5028 5.5263 22.5023C5.3672 22.5017 5.21239 22.4505 5.08428 22.3562C4.95617 22.2618 4.86138 22.1292 4.81361 21.9774C4.76585 21.8256 4.7676 21.6626 4.81859 21.5119L7.16984 14.5477L1.07609 10.3688C0.944098 10.2783 0.844476 10.1481 0.791783 9.99702C0.739089 9.84596 0.736086 9.682 0.783211 9.5291C0.830336 9.37621 0.925121 9.24239 1.05372 9.1472C1.18231 9.05201 1.33798 9.00043 1.49797 9.00001H9.01578L11.2845 2.01798C11.3334 1.86724 11.4288 1.73586 11.5569 1.64267C11.6851 1.54949 11.8395 1.4993 11.998 1.4993C12.1564 1.4993 12.3108 1.54949 12.439 1.64267C12.5672 1.73586 12.6625 1.86724 12.7114 2.01798L14.9802 9.00236H22.498C22.6582 9.00228 22.8142 9.05349 22.9431 9.1485C23.0721 9.24351 23.1673 9.37732 23.2147 9.53033C23.2621 9.68334 23.2593 9.84752 23.2067 9.99881C23.154 10.1501 23.0543 10.2806 22.9222 10.3711L16.8261 14.5477L19.1759 21.51C19.214 21.6227 19.2247 21.7429 19.2072 21.8606C19.1896 21.9783 19.1444 22.0901 19.0751 22.1868C19.0058 22.2835 18.9145 22.3624 18.8087 22.4168C18.7029 22.4713 18.5857 22.4998 18.4667 22.5Z" fill="#FFE100"/>
</svg>
