<svg width="26" height="24" viewBox="0 0 26 24" fill="none" xmlns="http://www.w3.org/2000/svg">
<path d="M5.73383 6C4.15717 7.62545 3.27444 9.72457 3.25012 11.9062C3.19019 16.8914 7.59953 20.9906 13.0001 21C18.3931 21.0094 22.7501 16.9767 22.7501 12C22.7501 7.09969 18.5073 3.11203 13.2286 3C13.1989 2.99912 13.1693 3.00377 13.1416 3.01367C13.1139 3.02358 13.0886 3.03853 13.0673 3.05765C13.0459 3.07677 13.029 3.09965 13.0175 3.12494C13.0059 3.15023 13 3.1774 13.0001 3.20484V7.125" stroke="black" stroke-width="2" stroke-linecap="round" stroke-linejoin="round"/>
<path d="M11.8514 13.0608L7.8397 7.7639C7.7842 7.69052 7.75846 7.60144 7.76698 7.51228C7.7755 7.42312 7.81774 7.33958 7.8863 7.27629C7.95486 7.21301 8.04537 7.17401 8.14195 7.16615C8.23854 7.15828 8.33504 7.18205 8.41455 7.23328L14.1528 10.9364C14.5048 11.1704 14.7428 11.5229 14.8154 11.9176C14.888 12.3124 14.7893 12.7176 14.5407 13.0457C14.2921 13.3738 13.9136 13.5984 13.487 13.6709C13.0604 13.7433 12.6201 13.6579 12.2612 13.433C12.1026 13.3315 11.9639 13.2056 11.8514 13.0608Z" fill="black"/>
</svg>
