<svg  viewBox="0 0 16 22" fill="none" xmlns="http://www.w3.org/2000/svg">
<path d="M7.59088 0.5C3.45041 0.5 0.0908813 3.52391 0.0908813 7.25C0.0908813 13.25 7.59088 21.5 7.59088 21.5C7.59088 21.5 15.0909 13.25 15.0909 7.25C15.0909 3.52391 11.7313 0.5 7.59088 0.5ZM7.59088 11C6.99754 11 6.41752 10.8241 5.92417 10.4944C5.43082 10.1648 5.04631 9.69623 4.81924 9.14805C4.59218 8.59987 4.53277 7.99667 4.64853 7.41473C4.76428 6.83279 5.05 6.29824 5.46956 5.87868C5.88912 5.45912 6.42367 5.1734 7.00561 5.05764C7.58755 4.94189 8.19075 5.0013 8.73893 5.22836C9.28711 5.45542 9.75565 5.83994 10.0853 6.33329C10.4149 6.82664 10.5909 7.40666 10.5909 8C10.59 8.79538 10.2737 9.55794 9.71124 10.1204C9.14882 10.6828 8.38626 10.9991 7.59088 11Z" fill="#FF0B0B"/>
</svg>
